HIERARCHY
ROOT pelvis
{
  OFFSET 0 100 0
  CHANNELS 6 Xposition Yposition Zposition Zrotation Xrotation Yrotation
  JOINT pelvis_right_femur
  {
    OFFSET -10.78128 -3.44521 -0.5502486
    CHANNELS 3 Zrotation Xrotation Yrotation
    JOINT right_femur_tibia
    {
      OFFSET -0.8047443 -44.0398 -0.1307829
      CHANNELS 3 Zrotation Xrotation Yrotation
      JOINT right_tibia_foot
      {
        OFFSET 3.006224 -47.83518 -5
        CHANNELS 3 Zrotation Xrotation Yrotation
        End Site
        {
          OFFSET 0 -5 15
        }
      }
    }
  }
  JOINT pelvis_left_femur
  {
    OFFSET 10.78128 -3.44521 -0.5502486
    CHANNELS 3 Zrotation Xrotation Yrotation
    JOINT left_femur_tibia
    {
      OFFSET 0.8047443 -44.0398 -0.1307829
      CHANNELS 3 Zrotation Xrotation Yrotation
      JOINT left_tibia_foot
      {
        OFFSET -4.370144 -48.10324 -4.275266
        CHANNELS 3 Zrotation Xrotation Yrotation
        End Site
        {
          OFFSET 0 -5 15
        }
      }
    }
  }
  JOINT pelvis_spine1
  {
    OFFSET 0 6.468898 -3.129235
    CHANNELS 3 Zrotation Xrotation Yrotation
    JOINT spine1
    {
      OFFSET 0 23.15396 4.99043
      CHANNELS 3 Zrotation Xrotation Yrotation
      JOINT spine2
      {
        OFFSET 0 20.79997 -5.064912
        CHANNELS 3 Zrotation Xrotation Yrotation
        JOINT neck
        {
          OFFSET 0 14.38658 9.616178
          CHANNELS 3 Zrotation Xrotation Yrotation
          End Site
          {
            OFFSET 0 20 0
          }
        }
      }
      JOINT right_manubrium
      {
        OFFSET -5.722621 16.35077 3.967754
        CHANNELS 3 Zrotation Xrotation Yrotation
        JOINT right_clavicle
        {
          OFFSET -13.16364 1.694482 -4.693211
          CHANNELS 3 Zrotation Xrotation Yrotation
          JOINT right_humerus
          {
            OFFSET -28.5034 -0.3100689 -2.792744
            CHANNELS 3 Zrotation Xrotation Yrotation
            JOINT right_radius
            {
              OFFSET -25.15693 0.02248979 -1.271978
              CHANNELS 3 Zrotation Xrotation Yrotation
              End Site
              {
                OFFSET -15 0 0
              }
            }
          }
        }
      }
      JOINT left_manubrium
      {
        OFFSET 5.722621 16.35077 3.967754
        CHANNELS 3 Zrotation Xrotation Yrotation
        JOINT left_clavicle
        {
          OFFSET 13.16364 1.694482 -4.693211
          CHANNELS 3 Zrotation Xrotation Yrotation
          JOINT left_humerus
          {
            OFFSET 29.39168 -1.063119 -2.237045
            CHANNELS 3 Zrotation Xrotation Yrotation
            JOINT left_radius
            {
              OFFSET 24.59957 -0.9528479 0.9047498
              CHANNELS 3 Zrotation Xrotation Yrotation
              End Site
              {
                OFFSET 15 -0 -0
              }
            }
          }
        }
      }
    }
  }
}
MOTION
Frames: 19
Frame Time: 0.0416666666667
-261.3877 98.40585 3071.199 0.5799225 -5.379075 -19.95792 -1.303203 16.78109 2.902452 -0 38.60458 -0 -2.584574 0.52541 -1.121972 -4.560736 -19.61513 -7.916645 -0 19.79485 -0 -1.109536 -8.350073 20.52177 -0.6429323 -1.70521 7.512631 -0.01930131 13.9914 -6.056225 -1.247411 21.1611 6.519686 7.476717 -15.11506 1.093648 2.220443 -23.74178 12.73039 85.78368 24.52817 -14.32978 -0 0 22.15491 -21.33703 9.062726 6.336362 6.085627 -27.13717 -9.785289 -93.85142 6.563512 28.58186 0 0 -6.039137 14.15174 12.64371 -6.6074
-262.5557 99.57505 3078.106 0.5529604 -6.305298 -19.14368 -1.427046 12.45954 2.865425 -0 48.29708 -0 -2.738743 5.91295 -1.899709 -5.658806 -14.96391 -8.273633 -0 20.93286 -0 -0.05893248 -9.359382 20.00774 -0.563344 -1.999133 7.718323 -0.001771936 13.78787 -6.207476 -1.561273 20.83892 7.045756 8.227835 -15.30702 0.6693863 2.37934 -22.77593 12.57421 85.77109 24.58342 -15.72182 -0 0 20.96819 -21.18084 9.121185 5.560319 6.974019 -28.51038 -10.02319 -93.62004 6.113368 27.20055 0 0 -9.089275 14.31875 12.10733 -7.065057
-263.6003 101.0546 3084.529 0.1383686 -7.032974 -18.03682 -0.9766569 6.394388 2.576531 -0 55.11901 -0 -3.166049 9.205339 -2.767154 -6.016332 -9.702658 -8.276056 -0 20.51256 -0 0.6305015 -10.46586 19.2976 -0.4931848 -2.338106 8.016882 -0.006918132 13.55253 -6.323339 -1.870175 20.48337 7.44045 8.91678 -15.3682 0.1450782 2.585109 -21.93776 12.39219 85.60057 24.66072 -16.89993 -0 0 20.11638 -20.91888 9.173002 4.882584 7.783043 -29.75017 -10.22844 -93.50052 5.615359 26.19698 0 0 -11.81028 14.32904 11.5635 -7.252309
-264.5256 102.4362 3090.402 -0.4942806 -7.476547 -16.8567 -0.3149483 -0.721133 2.060848 -0 56.91946 -0 -3.811827 9.806717 -3.538032 -5.823697 -4.254678 -8.162362 -0 18.66005 -0 0.9543443 -11.6901 18.45846 -0.433882 -2.663256 8.384614 -0.02475393 13.33299 -6.382141 -2.16588 20.14284 7.717263 9.509028 -15.30191 -0.4142488 2.83756 -21.3312 12.22566 85.26479 24.73116 -17.72446 -0 0 19.70863 -20.58643 9.201 4.346509 8.412505 -30.73371 -10.40205 -93.59728 5.133363 25.80316 0 0 -13.71627 14.19966 11.02097 -7.143789
-265.3859 103.3309 3095.825 -1.053887 -7.616385 -15.80013 0.1818861 -7.91416 1.28999 -0 52.8699 -0 -4.464416 8.083698 -4.141097 -5.420551 0.9030552 -8.079729 -0 16.07174 -0 0.9730942 -13.17008 17.54098 -0.3798912 -2.929529 8.795376 -0.04038414 13.16693 -6.382331 -2.451332 19.84206 7.917792 10.00699 -15.13002 -0.9587728 3.135446 -20.99334 12.10823 84.77964 24.75572 -18.16267 -0 0 19.75573 -20.21946 9.201243 3.954 8.820122 -31.42609 -10.55446 -93.96721 4.712127 26.10978 0 0 -14.56674 13.94979 10.46505 -6.742195
-266.2682 103.5005 3101.012 -1.267575 -7.463001 -14.96759 0.3005878 -14.2801 0.2352286 -0 43.94376 -0 -4.871774 5.182107 -4.600498 -5.139422 5.406176 -8.022813 -0 13.65117 -0 0.7661539 -15.02416 16.58126 -0.3272767 -3.116233 9.220679 -0.04209168 13.07016 -6.337231 -2.72578 19.58925 8.0727 10.41746 -14.87996 -1.455776 3.466771 -20.90955 12.05388 84.1882 24.70867 -18.25879 -0 0 20.19502 -19.84431 9.176969 3.690717 9.00875 -31.84388 -10.69163 -94.59576 4.372485 27.05462 0 0 -14.37924 13.6007 9.88788 -6.079709
-267.2566 102.9206 3106.204 -1.026315 -7.045983 -14.35218 0.06779366 -19.249 -1.004916 -0 32.51733 -0 -4.92242 2.452274 -4.954394 -5.158507 9.109975 -7.901402 -0 12.14607 -0 0.3992438 -17.14371 15.61038 -0.2776391 -3.219563 9.625333 -0.02374753 13.04188 -6.267396 -2.976401 19.39017 8.187441 10.72979 -14.58154 -1.876155 3.803018 -21.04256 12.06096 83.56078 24.58686 -18.08808 -0 0 20.92341 -19.48397 9.133872 3.546348 9.000246 -32.01439 -10.80942 -95.4045 4.122378 28.46441 0 0 -13.33932 13.18444 9.30993 -5.224519
-268.4118 101.7581 3111.609 -0.4417164 -6.435622 -13.87959 -0.2798924 -22.6363 -2.165677 -0 21.39879 -0 -4.715356 0.8115944 -5.239663 -5.437227 12.07366 -7.657055 -0 12.01225 -0 -0.1033189 -19.1146 14.66167 -0.2383793 -3.24278 9.967319 0.0143205 13.07306 -6.192987 -3.1802 19.25458 8.249638 10.91968 -14.26368 -2.189523 4.107469 -21.34891 12.12022 82.97615 24.40725 -17.72085 -0 0 21.8275 -19.16893 9.080111 3.520826 8.823866 -31.958 -10.89458 -96.2781 3.967779 30.1103 0 0 -11.69546 12.74623 8.784925 -4.279997
-269.7763 100.3024 3117.366 0.204859 -5.758406 -13.46496 -0.403554 -24.54403 -2.919202 -0 12.91107 -0 -4.492686 0.4351623 -5.500006 -5.762447 14.45537 -7.31478 -0 13.51166 -0 -0.7474856 -20.33723 13.78281 -0.2216627 -3.192396 10.20453 0.06434036 13.14987 -6.126991 -3.313064 19.19407 8.245323 10.97032 -13.9476 -2.373123 4.353957 -21.77925 12.21897 82.49027 24.19846 -17.20556 -0 0 22.80706 -18.94005 9.026339 3.617986 8.520536 -31.69184 -10.92944 -97.09994 3.915735 31.75759 0 0 -9.680075 12.33771 8.386812 -3.370733
-271.3822 98.89034 3123.536 0.5789707 -5.190151 -13.06736 0.00306917 -25.19507 -3.024796 -0 8.334911 -0 -4.489745 0.8861195 -5.763457 -5.869975 16.3634 -6.946629 -0 16.86715 -0 -1.530432 -20.27117 13.05623 -0.2415533 -3.07865 10.30546 0.1123684 13.25449 -6.071671 -3.359682 19.21661 8.172161 10.89049 -13.64239 -2.42287 4.541022 -22.27588 12.34245 82.11513 23.99025 -16.57 -0 0 23.78772 -18.83907 8.982208 3.834514 8.145722 -31.2402 -10.89902 -97.78447 3.970661 33.2082 0 0 -7.465991 12.00637 8.184176 -2.61698
-273.2397 97.84175 3130.108 0.4411518 -4.930488 -12.7318 1.080426 -24.73501 -2.430574 -0 7.671481 -0 -4.794836 1.489271 -6.027849 -5.587987 17.70118 -6.610689 -0 22.2913 -0 -2.42376 -18.69817 12.60558 -0.3083801 -2.916478 10.25895 0.1434261 13.36749 -6.020936 -3.31833 19.32242 8.041507 10.7127 -13.34934 -2.354102 4.687226 -22.77899 12.47509 81.8271 23.80674 -15.83593 -0 0 24.71795 -18.89151 8.951724 4.153111 7.758477 -30.64022 -10.79842 -98.28953 4.128189 34.32992 0 0 -5.172082 11.78719 8.215109 -2.107785
-275.311 97.40133 3136.979 -0.221735 -5.130706 -12.59396 2.698721 -23.11616 -1.295561 -0 9.745191 -0 -5.300268 1.685351 -6.276854 -4.94021 18.08099 -6.318511 -0 29.80901 -0 -3.375409 -15.87594 12.56326 -0.4224021 -2.724631 10.07745 0.1478992 13.47248 -5.967388 -3.198368 19.50263 7.870159 10.47324 -13.07422 -2.190587 4.809439 -23.23971 12.6026 81.6004 23.66663 -15.03687 -0 0 25.55296 -19.09387 8.932624 4.544231 7.402715 -29.94006 -10.6362 -98.60275 4.372205 35.06084 0 0 -2.912011 11.69969 8.477003 -1.886749
-277.5023 97.68254 3143.954 -1.170005 -5.786725 -12.81555 4.453784 -20.20248 0.07239014 -0 12.73248 -0 -5.770081 1.186096 -6.486781 -4.136029 16.91586 -6.047522 -0 38.9439 -0 -4.300492 -12.47541 13.00315 -0.5705218 -2.522209 9.792011 0.125161 13.56101 -5.908753 -3.013775 19.74057 7.670096 10.19116 -12.83779 -1.951165 4.901628 -23.63138 12.71407 81.43905 23.58599 -14.2255 -0 0 26.24149 -19.41314 8.920411 4.974238 7.094026 -29.19142 -10.43232 -98.71865 4.677821 35.39578 0 0 -0.8380021 11.74743 8.933407 -1.95193
-279.6929 98.61986 3150.772 -2.02912 -6.71174 -13.46648 5.827939 -16.01592 1.348378 -0 14.96018 -0 -5.994179 -0.06384395 -6.603328 -3.432559 13.71882 -5.787842 -0 48.49094 -0 -5.071935 -9.324579 13.87918 -0.7279799 -2.324775 9.444713 0.0831233 13.63457 -5.849563 -2.778884 20.01374 7.443323 9.861985 -12.67359 -1.645954 4.93117 -23.95438 12.8035 81.38262 23.57681 -13.46505 -0 0 26.73232 -19.79441 8.912182 5.413911 6.818325 -28.44058 -10.21311 -98.63156 5.016362 35.37803 -0 0 0.86781 11.91391 9.525386 -2.256704
-281.784 99.96549 3157.204 -2.485753 -7.646282 -14.4523 6.45475 -10.87499 2.322087 -0 15.57985 -0 -5.932925 -1.959332 -6.533782 -2.959644 8.45387 -5.565661 -0 56.59934 -0 -5.548901 -7.090795 15.031 -0.8647456 -2.142883 9.082697 0.0348484 13.70194 -5.798383 -2.508882 20.29532 7.183898 9.468482 -12.61239 -1.284519 4.855158 -24.23258 12.86984 81.48325 23.63989 -12.81161 -0 0 26.99858 -20.17127 8.90699 5.842719 6.542088 -27.72264 -10.00535 -98.34909 5.358798 35.10151 -0 0 2.05242 12.15635 10.17974 -2.707915
-283.7282 101.3632 3163.143 -2.457752 -8.376826 -15.56685 6.319683 -5.316762 2.940773 -0 14.75404 -0 -5.723653 -4.291837 -6.203624 -2.626581 1.674358 -5.387476 -0 61.22709 -0 -5.671263 -6.037991 16.26746 -0.9552572 -1.982364 8.749713 -0.00647697 13.77345 -5.763319 -2.220305 20.55841 6.88414 8.997202 -12.66575 -0.8839369 4.643847 -24.50222 12.91571 81.7732 23.75851 -12.29632 -0 0 27.0581 -20.48251 8.904887 6.250371 6.229538 -27.05789 -9.828912 -97.90559 5.680901 34.69854 -0 0 2.658029 12.40987 10.82351 -3.18059
-285.5221 102.4661 3168.635 -2.130859 -8.728321 -16.61918 5.753878 0.08995731 3.250411 -0 13.25403 -0 -5.531514 -6.889459 -5.630407 -2.162316 -5.693124 -5.167456 -0 60.83595 -0 -5.563968 -5.973393 17.44013 -0.9876961 -1.84428 8.473089 -0.03262878 13.85576 -5.748109 -1.92662 20.78429 6.539337 8.446226 -12.8219 -0.4649008 4.294559 -24.79751 12.94534 82.24699 23.90273 -11.91399 -0 0 26.96992 -20.69334 8.907365 6.638913 5.857788 -26.44669 -9.688836 -97.3546 5.971529 34.29789 -0 0 2.746909 12.61016 11.40835 -3.56016
-287.1812 103.0295 3173.833 -1.807128 -8.514582 -17.51909 5.201226 4.906107 3.300921 -0 11.79343 -0 -5.403407 -9.728319 -4.903178 -1.285092 -12.73874 -4.757369 -0 55.07311 -0 -5.487109 -6.413151 18.43601 -0.9673736 -1.725319 8.255561 -0.04321133 13.94957 -5.750007 -1.633452 20.9684 6.150147 7.825073 -13.05352 -0.04275291 3.832097 -25.13809 12.96262 82.86286 24.04262 -11.62558 -0 0 26.81031 -20.80623 8.918117 7.021767 5.424501 -25.86957 -9.573472 -96.74962 6.236067 33.98018 -0 0 2.472778 12.71988 11.92513 -3.784854
-288.7279 102.9539 3178.941 -1.677928 -7.623635 -18.27305 4.91099 8.924513 3.108816 -0 10.65572 -0 -5.259595 -12.75398 -4.083554 0.05840829 -18.7966 -4.092261 -0 45.1632 -0 -5.605007 -6.850146 19.16962 -0.9135188 -1.620559 8.080269 -0.04524635 14.04896 -5.759887 -1.342398 21.1177 5.729492 7.16196 -13.32481 0.3706904 3.307109 -25.51698 12.9697 83.54775 24.15829 -11.37723 -0 0 26.6472 -20.8542 8.94148 7.41187 4.953775 -25.30399 -9.462961 -96.13817 6.487884 33.76194 -0 0 2.029601 12.73951 12.39153 -3.859396
